<svg width="50" height="50" viewBox="0 0 50 50" fill="none" xmlns="http://www.w3.org/2000/svg">
<path fill-rule="evenodd" clip-rule="evenodd" d="M12.5 8.33342C11.3494 8.33342 10.4167 9.26616 10.4167 10.4167V39.5834C10.4167 40.734 11.3494 41.6668 12.5 41.6668H37.5C38.6506 41.6668 39.5833 40.734 39.5833 39.5834V25.0001C39.5833 23.8495 40.5161 22.9167 41.6667 22.9167C42.8173 22.9167 43.75 23.8495 43.75 25.0001V39.5834C43.75 43.0352 40.9518 45.8334 37.5 45.8334H12.5C9.04822 45.8334 6.25 43.0352 6.25 39.5834V10.4167C6.25 6.96497 9.04822 4.16675 12.5 4.16675H25C26.1506 4.16675 27.0833 5.09949 27.0833 6.25008C27.0833 7.40067 26.1506 8.33342 25 8.33342H12.5Z" fill="white"/>
<path fill-rule="evenodd" clip-rule="evenodd" d="M16.8002 24.2997C16.4815 24.6184 16.2747 25.032 16.211 25.4782L15.2289 32.3528C15.0325 33.7278 16.211 34.9063 17.5859 34.7099L24.4606 33.7278C24.9068 33.664 25.3203 33.4573 25.6391 33.1385L41.3526 17.425C43.7933 14.9843 43.7933 11.027 41.3526 8.5862C38.9118 6.14542 34.9545 6.14542 32.5137 8.5862L16.8002 24.2997ZM33.9869 18.8982L23.1838 29.7012L19.7465 30.1922L20.2376 26.7549L31.0406 15.9519L33.9869 18.8982ZM36.9331 15.9519L33.9869 13.0056L35.46 11.5325C36.2736 10.7189 37.5927 10.7189 38.4063 11.5325C39.2199 12.3461 39.2199 13.6652 38.4063 14.4788L36.9331 15.9519Z" fill="white"/>
</svg>
