<svg width="50" height="50" viewBox="0 0 50 50" fill="none" xmlns="http://www.w3.org/2000/svg">
<path fill-rule="evenodd" clip-rule="evenodd" d="M20.8334 10.4167C20.8334 6.96497 23.6316 4.16675 27.0834 4.16675C30.5351 4.16675 33.3334 6.96497 33.3334 10.4167H39.5834C41.8845 10.4167 43.75 12.2822 43.75 14.5834V23.4742C43.75 24.2188 43.3526 24.9068 42.7076 25.2788C42.0626 25.6509 41.2681 25.6504 40.6235 25.2775C40.3192 25.1015 39.9663 25.0001 39.5834 25.0001C38.4328 25.0001 37.5 25.9328 37.5 27.0834C37.5 28.234 38.4328 29.1667 39.5834 29.1667C39.9663 29.1667 40.3192 29.0653 40.6235 28.8893C41.2681 28.5165 42.0626 28.516 42.7076 28.888C43.3526 29.26 43.75 29.948 43.75 30.6927V39.5834C43.75 41.8846 41.8845 43.7501 39.5834 43.7501H30.6926C29.948 43.7501 29.26 43.3527 28.8879 42.7077C28.5159 42.0626 28.5164 41.2681 28.8892 40.6236C29.0653 40.3193 29.1667 39.9663 29.1667 39.5834C29.1667 38.4328 28.2339 37.5001 27.0834 37.5001C25.9328 37.5001 25 38.4328 25 39.5834C25 39.9663 25.1014 40.3193 25.2775 40.6236C25.6503 41.2681 25.6508 42.0626 25.2788 42.7077C24.9067 43.3527 24.2187 43.7501 23.4741 43.7501H14.5834C12.2822 43.7501 10.4167 41.8846 10.4167 39.5834V33.3334C6.96491 33.3334 4.16669 30.5352 4.16669 27.0834C4.16669 23.6316 6.96491 20.8334 10.4167 20.8334V14.5834C10.4167 12.2822 12.2822 10.4167 14.5834 10.4167H20.8334ZM27.0834 8.33341C25.9328 8.33341 25 9.26615 25 10.4167C25 10.7997 25.1014 11.1526 25.2775 11.4569C25.6503 12.1014 25.6508 12.896 25.2788 13.541C24.9067 14.186 24.2187 14.5834 23.4741 14.5834L14.5834 14.5834V23.4742C14.5834 24.2188 14.1859 24.9068 13.5409 25.2788C12.8959 25.6509 12.1014 25.6504 11.4568 25.2775C11.1525 25.1015 10.7996 25.0001 10.4167 25.0001C9.26609 25.0001 8.33335 25.9328 8.33335 27.0834C8.33335 28.234 9.26609 29.1667 10.4167 29.1667C10.7996 29.1667 11.1525 29.0653 11.4568 28.8893C12.1014 28.5165 12.8959 28.516 13.5409 28.888C14.1859 29.26 14.5834 29.948 14.5834 30.6927V39.5834H20.8334C20.8334 36.1316 23.6316 33.3334 27.0834 33.3334C30.5351 33.3334 33.3334 36.1316 33.3334 39.5834H39.5834V33.3334C36.1316 33.3334 33.3334 30.5352 33.3334 27.0834C33.3334 23.6316 36.1316 20.8334 39.5834 20.8334V14.5834H30.6926C29.948 14.5834 29.26 14.186 28.8879 13.541C28.5159 12.896 28.5164 12.1014 28.8892 11.4569C29.0653 11.1526 29.1667 10.7997 29.1667 10.4167C29.1667 9.26615 28.2339 8.33341 27.0834 8.33341Z" fill="white"/>
</svg>
