<svg width="50" height="50" viewBox="0 0 50 50" fill="none" xmlns="http://www.w3.org/2000/svg">
<path fill-rule="evenodd" clip-rule="evenodd" d="M25 2.08325C27.3012 2.08325 29.1667 3.94873 29.1667 6.24992H37.5C40.9518 6.24992 43.75 9.04814 43.75 12.4999V39.5833C43.75 43.035 40.9518 45.8333 37.5 45.8333H12.5C9.04822 45.8333 6.25 43.035 6.25 39.5833V12.4999C6.25 9.04814 9.04822 6.24992 12.5 6.24992H20.8333C20.8333 3.94873 22.6988 2.08325 25 2.08325ZM16.6667 10.4166H12.5C11.3494 10.4166 10.4167 11.3493 10.4167 12.4999V39.5833C10.4167 40.7338 11.3494 41.6666 12.5 41.6666H37.5C38.6506 41.6666 39.5833 40.7338 39.5833 39.5833V12.4999C39.5833 11.3493 38.6506 10.4166 37.5 10.4166H33.3333V12.4999C33.3333 13.6505 32.4006 14.5833 31.25 14.5833H18.75C17.5994 14.5833 16.6667 13.6505 16.6667 12.4999V10.4166Z" fill="#35383F"/>
<path fill-rule="evenodd" clip-rule="evenodd" d="M14.5833 22.9166C14.5833 21.766 15.5161 20.8333 16.6667 20.8333L33.3333 20.8333C34.4839 20.8333 35.4167 21.766 35.4167 22.9166C35.4167 24.0672 34.4839 24.9999 33.3333 24.9999L16.6667 24.9999C15.5161 24.9999 14.5833 24.0672 14.5833 22.9166Z" fill="#35383F"/>
<path fill-rule="evenodd" clip-rule="evenodd" d="M14.5833 31.2501C14.5833 30.0995 15.5161 29.1667 16.6667 29.1667L25 29.1667C26.1506 29.1667 27.0833 30.0995 27.0833 31.2501C27.0833 32.4007 26.1506 33.3334 25 33.3334H16.6667C15.5161 33.3334 14.5833 32.4007 14.5833 31.2501Z" fill="#35383F"/>
</svg>
