<svg width="42" height="42" viewBox="0 0 42 42" fill="none" xmlns="http://www.w3.org/2000/svg">
<path fill-rule="evenodd" clip-rule="evenodd" d="M10.5834 0.166687C11.734 0.166687 12.6667 1.09943 12.6667 2.25002V4.33335H29.3334V2.25002C29.3334 1.09943 30.2662 0.166687 31.4167 0.166687C32.5673 0.166687 33.5001 1.09943 33.5001 2.25002V4.33335H35.5834C39.0352 4.33335 41.8334 7.13157 41.8334 10.5834V35.5834C41.8334 39.0351 39.0352 41.8334 35.5834 41.8334H6.41675C2.96497 41.8334 0.166748 39.0351 0.166748 35.5834V10.5834C0.166748 7.13158 2.96497 4.33335 6.41675 4.33335H8.50008V2.25002C8.50008 1.09943 9.43282 0.166687 10.5834 0.166687ZM29.3334 8.50002V10.5834C29.3334 11.7339 30.2662 12.6667 31.4167 12.6667C32.5673 12.6667 33.5001 11.7339 33.5001 10.5834V8.50002H35.5834C36.734 8.50002 37.6668 9.43276 37.6668 10.5834V16.8334H4.33342V10.5834C4.33342 9.43276 5.26616 8.50002 6.41675 8.50002H8.50008V10.5834C8.50008 11.7339 9.43282 12.6667 10.5834 12.6667C11.734 12.6667 12.6667 11.7339 12.6667 10.5834V8.50002H29.3334ZM4.33342 21V35.5834C4.33342 36.7339 5.26616 37.6667 6.41675 37.6667H35.5834C36.734 37.6667 37.6668 36.7339 37.6668 35.5834V21H4.33342Z" fill="#35383F"/>
</svg>
