<svg width="50" height="50" viewBox="0 0 50 50" fill="none" xmlns="http://www.w3.org/2000/svg">
<path fill-rule="evenodd" clip-rule="evenodd" d="M18.9459 7.35451C18.5662 8.49354 17.6996 9.38893 16.6506 9.97302C16.4875 10.0639 16.3259 10.1573 16.1661 10.2532C15.1355 10.8719 13.9254 11.1757 12.7477 10.9347L10.244 10.4224C8.48696 10.0628 6.69696 10.8679 5.80023 12.4211L4.50652 14.6619C3.60979 16.2151 3.80754 18.1678 4.99745 19.5097L6.69542 21.4245C7.49108 22.3218 7.83494 23.5184 7.81594 24.7175C7.81296 24.9057 7.81296 25.0941 7.81594 25.2823C7.83493 26.4813 7.49106 27.6779 6.69542 28.5752L4.99745 30.49C3.80754 31.8319 3.60979 33.7846 4.50652 35.3378L5.80023 37.5786C6.69696 39.1317 8.48696 39.9369 10.244 39.5773L12.7475 39.065C13.9252 38.824 15.1353 39.1278 16.166 39.7465C16.3258 39.8425 16.4874 39.9359 16.6506 40.0268C17.6996 40.6109 18.5662 41.5063 18.9459 42.6453L19.7533 45.0675C20.3204 46.769 21.9127 47.9166 23.7061 47.9166H26.2936C28.087 47.9166 29.6793 46.769 30.2464 45.0675L31.0538 42.6453C31.4335 41.5063 32.3001 40.6109 33.3491 40.0268C33.5123 39.936 33.6738 39.8425 33.8337 39.7465C34.8643 39.1278 36.0745 38.824 37.2521 39.065L39.7556 39.5773C41.5126 39.9369 43.3026 39.1317 44.1993 37.5786L45.4931 35.3378C46.3898 33.7846 46.192 31.8319 45.0021 30.49L43.3043 28.5753C42.5086 27.678 42.1648 26.4814 42.1838 25.2824C42.1867 25.0941 42.1867 24.9056 42.1837 24.7174C42.1647 23.5183 42.5086 22.3217 43.3043 21.4244L45.0021 19.5097C46.192 18.1678 46.3898 16.2151 45.4931 14.6619L44.1994 12.4211C43.3026 10.868 41.5126 10.0628 39.7556 10.4224L37.252 10.9347C36.0743 11.1757 34.8642 10.8719 33.8336 10.2532C33.6737 10.1573 33.5122 10.0639 33.3491 9.97302C32.3001 9.38893 31.4335 8.49353 31.0538 7.35451L30.2464 4.9323C29.6793 3.23088 28.087 2.08325 26.2936 2.08325H23.7061C21.9127 2.08325 20.3204 3.23088 19.7533 4.9323L18.9459 7.35451ZM31.25 24.9999C31.25 28.4517 28.4518 31.2499 25 31.2499C21.5482 31.2499 18.75 28.4517 18.75 24.9999C18.75 21.5481 21.5482 18.7499 25 18.7499C28.4518 18.7499 31.25 21.5481 31.25 24.9999Z" fill="white"/>
</svg>
