<svg width="50" height="50" viewBox="0 0 50 50" fill="none" xmlns="http://www.w3.org/2000/svg">
<path fill-rule="evenodd" clip-rule="evenodd" d="M6.24996 4.16675C7.40055 4.16675 8.33329 5.09949 8.33329 6.25008V39.5834C8.33329 40.734 9.26603 41.6668 10.4166 41.6668H43.75C44.9006 41.6668 45.8333 42.5995 45.8333 43.7501C45.8333 44.9007 44.9006 45.8334 43.75 45.8334H10.4166C6.96485 45.8334 4.16663 43.0352 4.16663 39.5834V6.25008C4.16663 5.09949 5.09937 4.16675 6.24996 4.16675Z" fill="white"/>
<path fill-rule="evenodd" clip-rule="evenodd" d="M14.5833 16.6667C15.7339 16.6667 16.6667 17.5995 16.6667 18.7501V35.4167C16.6667 36.5673 15.7339 37.5001 14.5833 37.5001C13.4327 37.5001 12.5 36.5673 12.5 35.4167V18.7501C12.5 17.5995 13.4327 16.6667 14.5833 16.6667Z" fill="white"/>
<path fill-rule="evenodd" clip-rule="evenodd" d="M22.9167 29.1667C24.0673 29.1667 25 30.0995 25 31.2501V35.4167C25 36.5673 24.0673 37.5001 22.9167 37.5001C21.7661 37.5001 20.8334 36.5673 20.8334 35.4167V31.2501C20.8334 30.0995 21.7661 29.1667 22.9167 29.1667Z" fill="white"/>
<path fill-rule="evenodd" clip-rule="evenodd" d="M31.25 8.33325C32.4006 8.33325 33.3333 9.26599 33.3333 10.4166V35.4166C33.3333 36.5672 32.4006 37.4999 31.25 37.4999C30.0994 37.4999 29.1666 36.5672 29.1666 35.4166V10.4166C29.1666 9.26599 30.0994 8.33325 31.25 8.33325Z" fill="white"/>
<path fill-rule="evenodd" clip-rule="evenodd" d="M39.5833 20.8333C40.7339 20.8333 41.6667 21.766 41.6667 22.9166V35.4166C41.6667 36.5672 40.7339 37.4999 39.5833 37.4999C38.4327 37.4999 37.5 36.5672 37.5 35.4166V22.9166C37.5 21.766 38.4327 20.8333 39.5833 20.8333Z" fill="white"/>
</svg>
