<svg width="50" height="50" viewBox="0 0 50 50" fill="none" xmlns="http://www.w3.org/2000/svg">
<path d="M36.8898 16.2352C36.0762 15.4216 34.7571 15.4216 33.9435 16.2352C33.1299 17.0488 33.1299 18.3679 33.9435 19.1815L37.6787 22.9167H18.75C17.5994 22.9167 16.6666 23.8494 16.6666 25C16.6666 26.1506 17.5994 27.0833 18.75 27.0833H37.6787L33.9435 30.8185C33.1299 31.6321 33.1299 32.9512 33.9435 33.7648C34.7571 34.5784 36.0762 34.5784 36.8898 33.7648L42.7083 27.9463C44.3355 26.3191 44.3355 23.6809 42.7083 22.0537L36.8898 16.2352Z" fill="white"/>
<path fill-rule="evenodd" clip-rule="evenodd" d="M6.25 10.4167C6.25 6.96497 9.04822 4.16675 12.5 4.16675H25C28.4518 4.16675 31.25 6.96497 31.25 10.4167V12.5001C31.25 13.6507 30.3173 14.5834 29.1667 14.5834C28.0161 14.5834 27.0833 13.6507 27.0833 12.5001V10.4167C27.0833 9.26616 26.1506 8.33342 25 8.33342H12.5C11.3494 8.33342 10.4167 9.26616 10.4167 10.4167V39.5834C10.4167 40.734 11.3494 41.6668 12.5 41.6668H25C26.1506 41.6668 27.0833 40.734 27.0833 39.5834V37.5001C27.0833 36.3495 28.0161 35.4168 29.1667 35.4168C30.3173 35.4168 31.25 36.3495 31.25 37.5001V39.5834C31.25 43.0352 28.4518 45.8334 25 45.8334H12.5C9.04822 45.8334 6.25 43.0352 6.25 39.5834V10.4167Z" fill="white"/>
</svg>
